# xmcd
#
# Track frame offsets:
#	150
#	10712
#	22451
#	37381
#	49800
#	65254
#	75161
#	89639
#	101864
#	113099
#	125707
#	139862
#	153806
#	167662
#	180792
#	193217
#	206219
#	219336
#	231478
#	246631
#
# Disc length: 3439 seconds
#
# Revision: 0
# Processed by: cddbd v1.5.2PL0 Copyright (c) Steve Scherf et al.
# Submitted via: dBpowerAMP V4.0
#
DISCID=250d6d14
DTITLE=Varios - Los 100 mejores Boleros de la Historia 2
DYEAR=1900
DGENRE=Blues
TTITLE0=201 Historia de un amor (Los Panchos and Mari Trini)
TTITLE1=202 Sabor a mí (Boleros Bengalíes)
TTITLE2=203 Contigo en la distancia (Lucho Gatica)
TTITLE3=204 La novia (Antonio Machín)
TTITLE4=205 Tres palabras (Los Románticos)
TTITLE5=206 Llévatela (Moncho)
TTITLE6=207 Los dos (Johnny Albino)
TTITLE7=208 Piel canela (Bobby Capó)
TTITLE8=209 Obsesión (Los Jaibos)
TTITLE9=210 Lo añoro (Vicentico Valdés)
TTITLE10=211 Ahora soy tan feliz (Benny Moré)
TTITLE11=212 Tu precio (Bienvenido Granda)
TTITLE12=213 Campanitas de cristal (Olga Guillot)
TTITLE13=214 Contigo aprendí (Boleros Bengalíes)
TTITLE14=215 Indiferente (Nelson Pinedo)
TTITLE15=216 Si tú me dices ven (Los Panchos and Mari Trini)
TTITLE16=217 La noche de anoche (Moncho)
TTITLE17=218 Amorcito corazón (Los Tres Reyes)
TTITLE18=219 Angelitos negros (Nati Mistral)
TTITLE19=220 Noche plateada (Hermanos Michel)
EXTD=
EXTT0=
EXTT1=
EXTT2=
EXTT3=
EXTT4=
EXTT5=
EXTT6=
EXTT7=
EXTT8=
EXTT9=
EXTT10=
EXTT11=
EXTT12=
EXTT13=
EXTT14=
EXTT15=
EXTT16=
EXTT17=
EXTT18=
EXTT19=
PLAYORDER=
